<?xml version="1.0" standalone="no"?>
<!DOCTYPE svg PUBLIC "-//W3C//DTD SVG 20010904//EN"
 "http://www.w3.org/TR/2001/REC-SVG-20010904/DTD/svg10.dtd">
<svg version="1.0" xmlns="http://www.w3.org/2000/svg"
 width="700.000000pt" height="700.000000pt" viewBox="0 0 700.000000 700.000000"
 preserveAspectRatio="xMidYMid meet">
<metadata>
Created by potrace 1.11, written by Peter Selinger 2001-2013
</metadata>
<g transform="translate(0.000000,700.000000) scale(0.100000,-0.100000)"
fill="#000000" stroke="none">
<path d="M195 6912 c-39 -8 -100 -41 -127 -69 -111 -117 -76 -307 70 -379 34
-18 73 -19 547 -21 281 -1 517 -3 526 -3 19 0 27 -17 35 -69 8 -52 64 -392 69
-421 3 -14 21 -122 40 -240 20 -118 38 -226 40 -240 3 -14 10 -54 15 -90 6
-36 13 -77 15 -92 3 -16 7 -40 10 -55 2 -16 14 -82 25 -148 12 -66 23 -136 26
-155 3 -19 7 -46 9 -60 3 -14 8 -41 10 -60 3 -19 8 -44 10 -56 3 -12 7 -39 11
-60 3 -21 14 -88 25 -149 10 -60 21 -128 24 -150 4 -22 8 -47 10 -55 2 -8 7
-33 10 -55 3 -23 7 -52 10 -65 3 -13 7 -42 10 -65 3 -22 8 -47 10 -55 2 -8 7
-33 10 -55 3 -23 8 -52 10 -65 3 -14 8 -41 11 -60 3 -19 12 -75 21 -125 8 -49
16 -99 17 -110 2 -11 6 -33 9 -50 4 -16 9 -50 13 -75 3 -24 7 -47 9 -50 1 -3
6 -27 9 -55 4 -27 9 -61 11 -75 10 -51 14 -69 21 -117 3 -26 8 -55 9 -63 2 -8
6 -35 10 -60 4 -25 9 -54 11 -65 3 -11 11 -63 20 -115 8 -52 17 -106 19 -120
8 -40 36 -203 40 -230 2 -14 6 -38 9 -55 10 -57 38 -230 41 -250 41 -267 160
-937 172 -962 21 -45 93 -107 141 -121 26 -8 127 -12 291 -12 138 0 251 -2
251 -5 0 -3 -16 -27 -35 -54 -51 -71 -90 -166 -112 -271 -3 -14 -5 -68 -5
-120 1 -304 196 -560 497 -651 54 -17 98 -22 190 -22 253 0 486 147 605 383
105 208 82 500 -54 685 -12 17 -26 36 -30 43 -6 9 126 12 643 12 l651 0 -40
-59 c-87 -127 -121 -249 -116 -411 4 -132 38 -242 108 -346 193 -288 555 -388
863 -239 81 39 108 57 181 122 90 80 182 256 200 381 5 40 5 172 -1 211 -13
95 -59 206 -121 293 l-33 47 202 3 c222 3 233 6 296 70 52 52 65 85 65 163 0
81 -22 135 -76 180 -75 64 94 59 -2120 60 -1109 0 -2019 3 -2023 6 -7 8 -13
34 -26 129 -6 41 -12 77 -14 80 -2 3 -7 31 -10 63 l-7 57 1849 1 c1016 0 1859
2 1873 5 203 36 366 205 393 409 3 22 15 92 26 155 12 63 23 132 27 154 3 21
8 48 10 60 7 35 23 129 29 166 3 19 7 46 10 60 3 14 7 41 10 60 3 19 12 71 20
115 8 44 17 96 20 115 4 19 15 87 26 150 11 63 22 129 24 145 3 17 7 41 10 55
2 14 7 41 10 60 3 19 21 123 40 230 19 107 36 209 39 225 2 17 14 86 26 155
12 69 24 139 26 155 3 17 12 68 20 115 9 47 17 94 19 105 2 11 11 64 20 118
28 158 7 279 -65 389 -61 92 -168 168 -280 199 -30 8 -132 12 -302 13 l-257 2
-623 622 c-343 342 -640 634 -660 648 -106 70 -215 91 -368 69 -19 -3 -68 -21
-109 -41 -70 -35 -106 -69 -706 -668 l-632 -631 -549 0 -548 0 -7 35 c-4 19
-11 55 -14 79 -3 24 -12 78 -20 120 -8 42 -16 92 -19 111 -8 56 -17 111 -22
134 -2 11 -7 37 -10 56 -2 19 -7 46 -9 60 -3 14 -7 39 -9 55 -3 17 -12 73 -21
125 -10 52 -19 109 -21 125 -3 17 -11 66 -19 110 -8 44 -17 98 -20 120 -3 22
-9 54 -12 70 -4 17 -8 39 -9 50 -12 96 -58 165 -139 208 -39 21 -49 21 -680
22 -352 0 -649 -1 -660 -3z m3271 -2252 c72 -31 130 -107 139 -182 2 -18 9
-73 15 -123 6 -49 12 -106 15 -125 2 -19 7 -60 10 -90 3 -30 8 -66 10 -80 4
-25 10 -81 20 -162 3 -24 11 -97 20 -163 8 -66 17 -146 20 -178 4 -32 8 -67
10 -77 2 -10 6 -47 10 -82 3 -35 7 -74 10 -88 2 -14 7 -54 11 -90 3 -36 7 -67
9 -70 1 -3 6 -41 10 -85 4 -44 9 -83 12 -88 2 -4 6 -50 8 -101 5 -108 -9 -156
-58 -206 -96 -98 -256 -99 -346 -2 -33 36 -58 97 -65 161 -4 30 -8 64 -11 75
-2 12 -7 48 -10 81 -3 33 -8 76 -10 95 -3 19 -7 53 -9 75 -3 22 -7 63 -11 90
-13 105 -24 202 -30 255 -4 30 -8 66 -10 80 -2 14 -6 48 -9 75 -11 95 -19 160
-21 175 -2 8 -6 47 -10 85 -4 39 -9 78 -11 87 -1 9 -6 48 -9 85 -4 37 -8 75
-10 83 -2 8 -7 40 -10 70 -3 30 -10 89 -16 131 -21 163 36 263 176 304 48 14
95 10 151 -15z m1212 -27 c20 -16 49 -53 65 -83 l27 -54 0 -858 c0 -849 0
-859 -21 -903 -73 -154 -263 -189 -383 -70 -73 73 -70 36 -70 985 0 829 1 846
21 890 49 109 154 161 271 134 30 -6 70 -25 90 -41z m1101 36 c47 -16 111 -76
134 -127 17 -40 26 -168 13 -190 -2 -4 -7 -37 -10 -74 -4 -37 -9 -77 -11 -90
-2 -13 -6 -45 -9 -73 -9 -82 -16 -148 -21 -180 -10 -74 -24 -195 -30 -250 -3
-33 -8 -71 -10 -85 -3 -14 -7 -47 -10 -73 -4 -43 -26 -228 -40 -342 -3 -22 -8
-62 -11 -90 -2 -27 -6 -61 -9 -75 -2 -14 -7 -52 -10 -85 -12 -112 -24 -174
-40 -209 -66 -140 -259 -175 -373 -68 -49 46 -73 100 -73 167 0 49 2 76 21
225 5 41 12 98 15 125 3 28 10 84 15 125 9 73 15 117 25 210 3 25 8 61 10 80
3 19 8 55 10 80 3 25 7 61 10 80 2 19 7 60 11 90 3 30 8 66 9 80 2 14 6 50 9
80 3 30 11 91 16 135 6 44 13 96 15 115 2 19 6 55 9 80 3 25 8 68 11 95 12
106 39 165 97 208 67 50 144 62 227 36z"/>
</g>
</svg>
