<?xml version="1.0"?>
<svg xmlns="http://www.w3.org/2000/svg" xmlns:xlink="http://www.w3.org/1999/xlink" version="1.1" id="Capa_1" x="0px" y="0px" viewBox="0 0 471.643 471.643" style="enable-background:new 0 0 471.643 471.643;" xml:space="preserve" width="512px" height="512px" class=""><g><path style="fill:#FDBC4B;" d="M328.096,23.741c-12.496-12.496-32.752-12.496-45.248,0l-91.744,91.744h228.752L328.096,23.741z" data-original="#FDBC4B" class=""/><path style="fill:#4949E7" d="M439.648,105.453H114.064l38.128,230.16h258.896c15.584,0,28.896-11.232,31.536-26.576l28.544-166.16  C474.544,123.325,459.488,105.453,439.648,105.453z M241.6,296.909c-8.672,0.816-16.592-5.552-17.408-14.448L211.12,173.549  c-0.816-8.816,5.664-16.592,14.448-17.424c8.784-0.816,16.592,5.664,17.408,14.448l13.072,108.912  C256.864,288.301,250.384,296.077,241.6,296.909z M321.456,280.973c0,8.848-7.168,16-16,16s-16-7.152-16-16V172.061  c0-8.848,7.168-16,16-16s16,7.152,16,16V280.973z M386.72,282.461c-0.816,8.896-8.736,15.264-17.408,14.448  c-8.8-0.832-15.28-8.608-14.448-17.424l13.072-108.912c0.8-8.8,8.592-15.296,17.408-14.448c8.8,0.832,15.28,8.608,14.448,17.424  L386.72,282.461z" data-original="#E95454" class="active-path" data-old_color="#E95454"/><path style="fill:#CACACA;" d="M438.112,390.125H155.616c-7.824,0-14.496-5.664-15.776-13.36L83.104,37.661H16  c-8.832,0-16-7.152-16-16s7.168-16,16-16h80.672c7.824,0,14.496,5.664,15.776,13.36l56.72,339.104h268.944c8.832,0,16,7.152,16,16  S446.944,390.125,438.112,390.125z" data-original="#CACACA" class=""/><circle style="fill:#464646;" cx="222.8" cy="420.045" r="45.936" data-original="#464646" class=""/><circle style="fill:#FFFFFF;" cx="222.8" cy="420.045" r="24.464" data-original="#FFFFFF"/><circle style="fill:#464646;" cx="380.784" cy="420.045" r="45.936" data-original="#464646" class=""/><circle style="fill:#FFFFFF;" cx="380.784" cy="420.045" r="24.464" data-original="#FFFFFF"/><g>
	<path style="fill:#202095" d="M178.704,234.717c-8.976,1.488-15.04,9.952-13.552,18.928l2.08,12.576   c1.488,8.976,9.952,15.04,18.928,13.552s15.04-9.952,13.552-18.928l-2.08-12.576C196.144,239.293,187.68,233.245,178.704,234.717z" data-original="#ED6362" class="" data-old_color="#ED6362"/>
	<path style="fill:#202095" d="M159.024,115.709c-8.976,1.488-15.04,9.952-13.552,18.928l12.816,77.504   c1.488,8.976,9.952,15.04,18.928,13.552s15.04-9.952,13.552-18.928l-12.816-77.504   C176.464,120.285,167.984,114.221,159.024,115.709z" data-original="#ED6362" class="" data-old_color="#ED6362"/>
</g><g>
	<path style="fill:#C2C1C1" d="M47.536,8.605H19.408c-7.328,0-13.264,5.936-13.264,13.264s5.936,13.264,13.264,13.264h28.128   c7.328,0,13.264-5.936,13.264-13.264S54.848,8.605,47.536,8.605z" data-original="#C2C1C1" class=""/>
	<path style="fill:#C2C1C1" d="M88.016,8.605h-7.168c-7.328,0-13.264,5.936-13.264,13.264s5.936,13.264,13.264,13.264h7.168   c7.328,0,13.264-5.936,13.264-13.264S95.344,8.605,88.016,8.605z" data-original="#C2C1C1" class=""/>
</g></g> </svg>
